<svg xmlns="http://www.w3.org/2000/svg" viewBox="0 0 11.34 11.34"><defs><style>.cls-1{fill:#2d904d;}</style></defs><g id="Layer_2" data-name="Layer 2"><g id="Layer_1-2" data-name="Layer 1"><path class="cls-1" d="M6.8,9.83a.76.76,0,1,0,.76.75.76.76,0,0,0-.76-.75"/><path class="cls-1" d="M6.8,7.81a.76.76,0,1,0,.76.76.76.76,0,0,0-.76-.76"/><path class="cls-1" d="M6.8,5.8a.75.75,0,0,0-.75.75A.76.76,0,1,0,6.8,5.8"/><path class="cls-1" d="M4.79,9.83a.76.76,0,1,0,.75.75.76.76,0,0,0-.75-.75"/><path class="cls-1" d="M4.79,7.81a.76.76,0,1,0,.75.76.76.76,0,0,0-.75-.76"/><path class="cls-1" d="M2.77,9.83a.76.76,0,0,0,0,1.51.76.76,0,1,0,0-1.51"/><path class="cls-1" d="M.76,9.83a.76.76,0,1,0,.75.75.76.76,0,0,0-.75-.75"/><path class="cls-1" d="M2.77,7.81a.76.76,0,1,0,.76.76.76.76,0,0,0-.76-.76"/><path class="cls-1" d="M4.79,5.8A.75.75,0,0,0,4,6.55a.76.76,0,1,0,1.51,0,.75.75,0,0,0-.75-.75"/><path class="cls-1" d="M6.8,5.29a.76.76,0,1,0-.75-.75.76.76,0,0,0,.75.75"/><path class="cls-1" d="M.76,5.29A.76.76,0,1,0,0,4.54a.76.76,0,0,0,.76.75"/><path class="cls-1" d="M.76,7.31a.76.76,0,0,0,.75-.76A.75.75,0,0,0,.76,5.8.75.75,0,0,0,0,6.55a.76.76,0,0,0,.76.76"/><path class="cls-1" d="M.76,9.32A.76.76,0,1,0,0,8.57a.76.76,0,0,0,.76.75"/><path class="cls-1" d="M2.77,5.29A.76.76,0,1,0,2,4.54a.75.75,0,0,0,.75.75"/><path class="cls-1" d="M2.77,7.31a.76.76,0,0,0,.76-.76.75.75,0,0,0-.76-.75A.74.74,0,0,0,2,6.55a.75.75,0,0,0,.75.76"/><path class="cls-1" d="M4.79,5.29A.76.76,0,1,0,4,4.54a.76.76,0,0,0,.76.75"/><path class="cls-1" d="M11.16.24A.71.71,0,0,0,10.62,0a.73.73,0,0,0-.51.21L7.6,2.72,7,3.34l-.19.19-1,1a.26.26,0,0,0,0,.09L5.48,5.68l-.05.17a.05.05,0,0,0,.05.07h0l1.28-.36.09,0,.73-.74,3.51-3.5a.77.77,0,0,0,.05-1"/></g></g></svg>