<svg xmlns="http://www.w3.org/2000/svg" viewBox="0 0 11.34 11.34"><defs><style>.cls-1{fill:#2d904d;}</style></defs><g id="Layer_2" data-name="Layer 2"><g id="Layer_1-2" data-name="Layer 1"><path class="cls-1" d="M3.7,1.83,2,3.25a.22.22,0,0,1-.15.06.28.28,0,0,1-.17-.07L1,2.53a.24.24,0,0,1,.34-.34l.55.56L3.39,1.47a.24.24,0,0,1,.33,0,.23.23,0,0,1,0,.33M2.36,0A2.36,2.36,0,1,0,4.72,2.36,2.36,2.36,0,0,0,2.36,0"/><path class="cls-1" d="M11.3,5.4,8,2.42a.23.23,0,0,0-.31,0l-3.35,3a.13.13,0,0,0,0,.09v5.85h2.6V9a.48.48,0,0,1,.47-.48h.95A.48.48,0,0,1,8.74,9v2.36h2.6V5.49a.13.13,0,0,0,0-.09"/></g></g></svg>