<svg xmlns="http://www.w3.org/2000/svg" viewBox="0 0 13.3 11.3"><defs><style>.cls-1{fill:#2d904d;}</style></defs><g id="Layer_2" data-name="Layer 2"><g id="Layer_1-2" data-name="Layer 1"><path class="cls-1" d="M8.87,3.82,4.65.07a.3.3,0,0,0-.38,0L.05,3.82a.16.16,0,0,0,0,.11V11.3H3.27v-3a.6.6,0,0,1,.6-.6H5.06a.59.59,0,0,1,.59.6v3H8.92V3.93a.16.16,0,0,0-.05-.11"/><path class="cls-1" d="M10.64,10.17v.35a.35.35,0,1,1-.69,0v-.35H9.83a.34.34,0,0,1-.34-.34.35.35,0,0,1,.34-.35h.68a.35.35,0,1,0,0-.69h-.2a1,1,0,0,1-1.06-1,1.06,1.06,0,0,1,.7-1v-.4a.35.35,0,1,1,.69,0v.34H11a.35.35,0,0,1,.34.35A.34.34,0,0,1,11,7.4h-.68a.35.35,0,1,0,0,.7h.2a1,1,0,0,1,.13,2.07m-.23-4.73A2.89,2.89,0,1,0,13.3,8.33a2.89,2.89,0,0,0-2.89-2.89"/><path class="cls-1" d="M10.64,10.17v.35a.35.35,0,1,1-.69,0v-.35H9.83a.34.34,0,0,1-.34-.34.35.35,0,0,1,.34-.35h.68a.35.35,0,1,0,0-.69h-.2a1,1,0,0,1-1.06-1,1.06,1.06,0,0,1,.7-1v-.4a.35.35,0,1,1,.69,0v.34H11a.35.35,0,0,1,.34.35A.34.34,0,0,1,11,7.4h-.68a.35.35,0,1,0,0,.7h.2a1,1,0,0,1,.13,2.07Zm-.23-4.73A2.89,2.89,0,1,0,13.3,8.33,2.89,2.89,0,0,0,10.41,5.44Z"/></g></g></svg>