<svg xmlns="http://www.w3.org/2000/svg" viewBox="0 0 11.34 11.34"><defs><style>.cls-1{fill:#2d904d;}</style></defs><g id="Layer_2" data-name="Layer 2"><g id="Layer_1-2" data-name="Layer 1"><path class="cls-1" d="M10.74,11.34a.6.6,0,0,1-.61-.6V3.62L5.67,1.23,1.21,3.62v7.12a.61.61,0,0,1-1.21,0V3.53A1,1,0,0,1,.56,2.6L5.16.13a1.06,1.06,0,0,1,1,0L10.78,2.6a1.06,1.06,0,0,1,.56.93v7.21a.6.6,0,0,1-.6.6"/><polygon class="cls-1" points="5.7 5.87 5.36 6.21 6.09 6.95 6.51 6.53 5.78 5.79 5.7 5.87"/><path class="cls-1" d="M2.61,9a.3.3,0,0,0,0,.4L3,9.69a.27.27,0,0,0,.39,0L5.88,7.16l-.73-.74Z"/><path class="cls-1" d="M9.14,5.79l-.53-.52a.14.14,0,0,0-.21,0l-.21.21-.32-.32L8.07,5a.14.14,0,0,0,0-.21L7.5,4.19l-.06-.06L7.29,4A1.64,1.64,0,0,0,6.13,3.5a1.62,1.62,0,0,0-1,.37A.22.22,0,0,0,5,4a.18.18,0,0,0,0,.14L6,5a.31.31,0,0,1,.09.14A.39.39,0,0,1,6,5.53l0,0,.28.29.45.45L7,6l.32.32-.21.21a.14.14,0,0,0,0,.21l.53.52a.29.29,0,0,0,.42,0l1.05-1a.31.31,0,0,0,0-.42"/></g></g></svg>