<svg xmlns="http://www.w3.org/2000/svg" viewBox="0 0 14.22 11.57"><defs><style>.cls-1{fill:#2d904d;}</style></defs><g id="Layer_2" data-name="Layer 2"><g id="Layer_1-2" data-name="Layer 1"><path class="cls-1" d="M6,2A1,1,0,0,0,7.22,1.6.95.95,0,1,0,5.53.75,1,1,0,0,0,6,2"/><path class="cls-1" d="M6.54,5.28l-1-.52.5-1a1.91,1.91,0,0,1,.48,1.51M2.15,8.73,3.57,5.92s0,0,.05,0A2,2,0,0,1,4.77,8.61a.53.53,0,0,0,0,.12Zm8.48,1.42H9.2a.83.83,0,0,0-.81-.71h-1a1.43,1.43,0,0,0-1.23-.71H5.73A2.83,2.83,0,0,0,5,5.79l.2-.4L6.36,6a.46.46,0,0,0,.28.47l.12,0a.47.47,0,0,0,.36-.11l1.72.89a.29.29,0,0,0,.16,0l.38-.07c.2,0,.23,0,.23-.24s.08-.31-.11-.31L9.09,6.6,7.42,5.73a2.91,2.91,0,0,0-1.6-3.32l0,0-.34-.17a1,1,0,0,0-1.28.42L3.06,4.84l0,0-2,3.91a1.42,1.42,0,0,0,.35,2.79h9.21a.71.71,0,0,0,0-1.42"/><path class="cls-1" d="M7.26,9.36l.39-.85.4-.46s.11-.32.23-.39a2.07,2.07,0,0,0,.34-.35L9.07,7s.23-.28.4-.28h.79L10.6,7v.51c0,.12.28.11.28.51a3.3,3.3,0,0,0,.23,1v1.19l-1,.39H8.39A10.83,10.83,0,0,1,7.26,10Z"/><path class="cls-1" d="M11.57,4.73v.35a.35.35,0,0,1-.35.35.35.35,0,0,1-.34-.35V4.73h-.12a.35.35,0,0,1-.35-.34A.35.35,0,0,1,10.76,4h.68a.35.35,0,1,0,0-.69h-.2a1.06,1.06,0,0,1-1.06-1,1,1,0,0,1,.7-1V.92a.34.34,0,0,1,.34-.34.35.35,0,0,1,.35.34v.35h.35a.35.35,0,0,1,.34.35.34.34,0,0,1-.34.34h-.68a.35.35,0,1,0,0,.7h.2a1,1,0,0,1,.13,2.07M11.34,0a2.89,2.89,0,1,0,2.88,2.89A2.89,2.89,0,0,0,11.34,0"/><path class="cls-1" d="M11.57,4.73v.35a.35.35,0,0,1-.35.35.35.35,0,0,1-.34-.35V4.73h-.12a.35.35,0,0,1-.35-.34A.35.35,0,0,1,10.76,4h.68a.35.35,0,1,0,0-.69h-.2a1.06,1.06,0,0,1-1.06-1,1,1,0,0,1,.7-1V.92a.34.34,0,0,1,.34-.34.35.35,0,0,1,.35.34v.35h.35a.35.35,0,0,1,.34.35.34.34,0,0,1-.34.34h-.68a.35.35,0,1,0,0,.7h.2a1,1,0,0,1,.13,2.07ZM11.34,0a2.89,2.89,0,1,0,2.88,2.89A2.89,2.89,0,0,0,11.34,0Z"/></g></g></svg>