<svg xmlns="http://www.w3.org/2000/svg" viewBox="0 0 11.34 11.34"><defs><style>.cls-1{fill:#2d904d;}</style></defs><g id="Layer_2" data-name="Layer 2"><g id="Layer_1-2" data-name="Layer 1"><path class="cls-1" d="M.33,2.63l2,.65L6,4.47c.18.06.38,0,.38-.2V2.6H8v.47h2.5a.81.81,0,1,0,0-1.61H8v.43H6.38V.22C6.38.06,6.18,0,6,0L2.34,1.21l-2,.65a.39.39,0,0,0,0,.77"/><path class="cls-1" d="M11.1,8.74h-5A.23.23,0,0,0,5.91,9V11.1a.23.23,0,0,0,.23.24h5a.24.24,0,0,0,.24-.24V9a.24.24,0,0,0-.24-.24"/><rect class="cls-1" x="2.84" y="5.67" width="5.67" height="2.6" rx="0.24"/><path class="cls-1" d="M5.2,8.74h-5A.24.24,0,0,0,0,9V11.1a.24.24,0,0,0,.24.24h5a.23.23,0,0,0,.23-.24V9a.23.23,0,0,0-.23-.24"/><path class="cls-1" d="M11.1,5.67H9.21A.23.23,0,0,0,9,5.91V8a.23.23,0,0,0,.23.24H11.1A.24.24,0,0,0,11.34,8V5.91a.24.24,0,0,0-.24-.24"/></g></g></svg>