<svg xmlns="http://www.w3.org/2000/svg" viewBox="0 0 11.64 11.34"><defs><style>.cls-1{fill:#2d904d;}</style></defs><g id="Layer_2" data-name="Layer 2"><g id="Layer_1-2" data-name="Layer 1"><path class="cls-1" d="M.39,11.34A.39.39,0,0,1,0,11v-.52A.39.39,0,0,1,.39,10a.4.4,0,0,1,.39.39V11a.4.4,0,0,1-.39.39"/><path class="cls-1" d="M7.42,1.26a.37.37,0,0,1-.18,0L6.33.73A.38.38,0,0,1,6.17.21.4.4,0,0,1,6.7.05l.9.48a.39.39,0,0,1,.16.53.38.38,0,0,1-.34.2m-3.2,0a.38.38,0,0,1-.34-.2A.4.4,0,0,1,4,.53l.9-.48a.38.38,0,0,1,.52.16.38.38,0,0,1-.15.52l-.91.49a.39.39,0,0,1-.18,0M9.68,2.47a.37.37,0,0,1-.18,0l-.91-.49a.38.38,0,0,1-.16-.52A.4.4,0,0,1,9,1.26l.9.48a.4.4,0,0,1,.16.53.38.38,0,0,1-.34.2M2,2.48a.39.39,0,0,1-.34-.21.38.38,0,0,1,.16-.52l.9-.49a.4.4,0,0,1,.53.16.38.38,0,0,1-.16.52l-.91.49a.41.41,0,0,1-.18,0m9.3,1.67a.38.38,0,0,1-.39-.39V3.22a.1.1,0,0,0,0-.08.39.39,0,0,1-.11-.54.38.38,0,0,1,.53-.11.86.86,0,0,1,.4.73v.54a.38.38,0,0,1-.38.39M.39,4.16A.39.39,0,0,1,0,3.77V3.22a.89.89,0,0,1,.39-.73.4.4,0,0,1,.54.11.39.39,0,0,1-.11.54.09.09,0,0,0,0,.08v.55a.4.4,0,0,1-.39.39M11.26,6.72a.39.39,0,0,1-.39-.39v-1a.39.39,0,1,1,.77,0v1a.39.39,0,0,1-.38.39M.39,6.72A.38.38,0,0,1,0,6.33v-1a.38.38,0,0,1,.39-.39.39.39,0,0,1,.39.39v1a.39.39,0,0,1-.39.39M11.26,9.28a.38.38,0,0,1-.39-.39v-1a.39.39,0,1,1,.77,0v1a.38.38,0,0,1-.38.39M.39,9.28A.38.38,0,0,1,0,8.9v-1a.39.39,0,0,1,.39-.39.4.4,0,0,1,.39.39v1a.39.39,0,0,1-.39.38"/><path class="cls-1" d="M11.26,11.34a.39.39,0,0,1-.39-.39v-.52a.39.39,0,1,1,.77,0V11a.39.39,0,0,1-.38.39"/></g></g></svg>