<svg xmlns="http://www.w3.org/2000/svg" viewBox="0 0 12.9 9.44"><defs><style>.cls-1{fill:#2d904d;}</style></defs><g id="Layer_2" data-name="Layer 2"><g id="Layer_1-2" data-name="Layer 1"><path class="cls-1" d="M11.36,2.19H1.45a.25.25,0,0,0-.24.25V3.89H5.08a1.57,1.57,0,0,1,2.65,0h2.42a.72.72,0,0,1,.72.72V7.27h.49A.24.24,0,0,0,11.6,7V2.44a.25.25,0,0,0-.24-.25"/><path class="cls-1" d="M8.94,7.63a.72.72,0,0,1-.63-.36.75.75,0,0,1-.1-.36.73.73,0,0,1,.73-.73.72.72,0,0,1,.72.73.74.74,0,0,1-.09.36.72.72,0,0,1-.63.36M5.2,8.48A1.57,1.57,0,0,1,3.67,7.27a1.49,1.49,0,0,1,0-.36A1.58,1.58,0,0,1,5,5.35l.24,0a1.57,1.57,0,0,1,1.44,1,1.61,1.61,0,0,1,.12.63,1.47,1.47,0,0,1,0,.36A1.57,1.57,0,0,1,5.2,8.48M1.45,7.75A.73.73,0,0,1,.72,7a.7.7,0,0,1,.49-.68.6.6,0,0,1,.24,0A.73.73,0,0,1,2.17,7a.67.67,0,0,1,0,.24.72.72,0,0,1-.68.48m8.7-3.38H.24A.24.24,0,0,0,0,4.61V9.2a.24.24,0,0,0,.24.24h9.91a.24.24,0,0,0,.24-.24V4.61a.24.24,0,0,0-.24-.24"/><path class="cls-1" d="M12.66,0H2.75a.24.24,0,0,0-.24.24V1.69H6.38A1.58,1.58,0,0,1,9,1.69h2.42a.73.73,0,0,1,.72.73V5.07h.49a.24.24,0,0,0,.24-.24V.24A.24.24,0,0,0,12.66,0"/></g></g></svg>