<svg xmlns="http://www.w3.org/2000/svg" viewBox="0 0 11.34 11.34"><defs><style>.cls-1{fill:#2d904d;}</style></defs><g id="Layer_2" data-name="Layer 2"><g id="Layer_1-2" data-name="Layer 1"><path class="cls-1" d="M9.21,2.83a.47.47,0,1,1-.94,0V1.42a.47.47,0,1,1,.94,0Zm0,3.55a.47.47,0,1,1-.94,0V5a.47.47,0,0,1,.47-.47A.48.48,0,0,1,9.21,5Zm0,3.54a.47.47,0,0,1-.94,0V8.5A.47.47,0,0,1,8.74,8a.44.44,0,0,1,.33.14.45.45,0,0,1,.14.33ZM6.14,11.34h5.2V0H6.14Z"/><path class="cls-1" d="M0,7.56A2,2,0,0,1,2.13,9.45v1.89H3.54V9.45A2,2,0,0,1,5.67,7.56V5.67H0Z"/></g></g></svg>