<svg xmlns="http://www.w3.org/2000/svg" viewBox="0 0 11.69 10.39"><defs><style>.cls-1{fill:#2d904d;}</style></defs><g id="Layer_2" data-name="Layer 2"><g id="Layer_1-2" data-name="Layer 1"><path class="cls-1" d="M10.15,2.19H.24A.25.25,0,0,0,0,2.44V3.89H3.87a1.57,1.57,0,0,1,2.65,0H8.94a.73.73,0,0,1,.73.72V7.27h.48A.24.24,0,0,0,10.39,7V2.44a.25.25,0,0,0-.24-.25"/><path class="cls-1" d="M11.45,0H1.54A.24.24,0,0,0,1.3.24V1.69H5.17a1.58,1.58,0,0,1,2.65,0h2.42a.73.73,0,0,1,.73.73V5.07h.48a.24.24,0,0,0,.24-.24V.24A.24.24,0,0,0,11.45,0"/><path class="cls-1" d="M7.42,6.85H4.67a.27.27,0,0,1-.28-.27.26.26,0,0,1,.28-.26H7.42a.26.26,0,0,1,.27.26.27.27,0,0,1-.27.27m0,1.06H4.67a.27.27,0,1,1,0-.53H7.42a.27.27,0,1,1,0,.53M7.42,9H4.67a.27.27,0,1,1,0-.53H7.42a.27.27,0,1,1,0,.53m-3.76.36H.73V9.15A1.45,1.45,0,0,1,2.2,7.73a1.46,1.46,0,0,1,1,.42,1.4,1.4,0,0,1,.43,1ZM1.55,5.69a.93.93,0,0,1,.65-.26.91.91,0,0,1,.64.26.85.85,0,0,1,.27.63.9.9,0,0,1-.91.88.93.93,0,0,1-.65-.26.86.86,0,0,1,0-1.25m6.69-1H.55A.54.54,0,0,0,0,5.25V9.86a.54.54,0,0,0,.55.53H8.24a.54.54,0,0,0,.54-.53V5.25a.54.54,0,0,0-.54-.53"/></g></g></svg>